<svg xmlns="http://www.w3.org/2000/svg" xmlns:xlink="http://www.w3.org/1999/xlink" width="96" height="96" version="1.1" viewBox="0 0 96 96"><title>20 Performance audits</title><desc>Created with Sketch.</desc><defs><linearGradient id="linearGradient-1" x1="36.626%" x2="64.01%" y1="20.358%" y2="100.652%"><stop offset="0%" stop-color="#FFF" stop-opacity=".1"/><stop offset="100%" stop-color="#FFF" stop-opacity="0"/></linearGradient><linearGradient id="linearGradient-2" x1="68.935%" x2="31.065%" y1="65.756%" y2="35.799%"><stop offset="0%" stop-color="#262626" stop-opacity=".1"/><stop offset="100%" stop-color="#262626" stop-opacity="0"/></linearGradient><linearGradient id="linearGradient-3" x1="62.531%" x2="24.779%" y1="13.086%" y2="100.996%"><stop offset="0%" stop-color="#262626" stop-opacity=".1"/><stop offset="100%" stop-color="#262626" stop-opacity="0"/></linearGradient><linearGradient id="linearGradient-4" x1="0%" x2="100%" y1="50%" y2="50%"><stop offset="0%" stop-color="#262626" stop-opacity=".1"/><stop offset="100%" stop-color="#262626" stop-opacity="0"/></linearGradient><path id="path-5" d="M10,14 C8.8954305,14 8,13.1045695 8,12 C8,10.8954305 8.8954305,10 10,10 C11.1045695,10 12,10.8954305 12,12 C12,13.1045695 11.1045695,14 10,14 Z M81,8 C80.4477153,8 80,7.55228475 80,7 C80,6.44771525 80.4477153,6 81,6 C81.5522847,6 82,6.44771525 82,7 C82,7.55228475 81.5522847,8 81,8 Z M15.5,31 C14.6715729,31 14,30.3284271 14,29.5 C14,28.6715729 14.6715729,28 15.5,28 C16.3284271,28 17,28.6715729 17,29.5 C17,30.3284271 16.3284271,31 15.5,31 Z M1,36 C0.44771525,36 0,35.5522847 0,35 C0,34.4477153 0.44771525,34 1,34 C1.55228475,34 2,34.4477153 2,35 C2,35.5522847 1.55228475,36 1,36 Z M9,80 C8.44771525,80 8,79.5522847 8,79 C8,78.4477153 8.44771525,78 9,78 C9.55228475,78 10,78.4477153 10,79 C10,79.5522847 9.55228475,80 9,80 Z M21,49 C20.4477153,49 20,48.5522847 20,48 C20,47.4477153 20.4477153,47 21,47 C21.5522847,47 22,47.4477153 22,48 C22,48.5522847 21.5522847,49 21,49 Z M5,54 C3.8954305,54 3,53.1045695 3,52 C3,50.8954305 3.8954305,50 5,50 C6.1045695,50 7,50.8954305 7,52 C7,53.1045695 6.1045695,54 5,54 Z M21,86 C20.4477153,86 20,85.5522847 20,85 C20,84.4477153 20.4477153,84 21,84 C21.5522847,84 22,84.4477153 22,85 C22,85.5522847 21.5522847,86 21,86 Z M59,13 C58.4477153,13 58,12.5522847 58,12 C58,11.4477153 58.4477153,11 59,11 C59.5522847,11 60,11.4477153 60,12 C60,12.5522847 59.5522847,13 59,13 Z M34,6 C33.4477153,6 33,5.55228475 33,5 C33,4.44771525 33.4477153,4 34,4 C34.5522847,4 35,4.44771525 35,5 C35,5.55228475 34.5522847,6 34,6 Z M83,36 C82.4477153,36 82,35.5522847 82,35 C82,34.4477153 82.4477153,34 83,34 C83.5522847,34 84,34.4477153 84,35 C84,35.5522847 83.5522847,36 83,36 Z M74,42 C73.4477153,42 73,41.5522847 73,41 C73,40.4477153 73.4477153,40 74,40 C74.5522847,40 75,40.4477153 75,41 C75,41.5522847 74.5522847,42 74,42 Z"/><mask id="mask-6" width="84" height="82" x="0" y="0" fill="#fff" maskContentUnits="userSpaceOnUse" maskUnits="objectBoundingBox"><use xlink:href="#path-5"/></mask><circle id="path-7" cx="20.962" cy="20.868" r="20.801"/></defs><g id="20-Performance-audits" fill="none" fill-rule="evenodd" stroke="none" stroke-width="1"><rect id="Rectangle" width="96" height="96" x="0" y="0"/><g id="lighthouse-graphics" transform="translate(5.000000, 3.000000)"><g id="lighthouse" transform="translate(3.000000, 0.000000)"><g id="Group-4-Copy-2"><rect id="Rectangle" width="80" height="80" x="0" y="0"/><g id="Group-2" transform="translate(3.764706, 3.764706)"><rect id="Rectangle" width="22.941" height="22.941" x="24.61" y="40.877" fill="#FFF"/><path id="Shape" fill="#F4481E" fill-rule="nonzero" stroke="#000" d="M18.9934641,73.4117647 L24.1925134,30.4491979 L49.2192513,30.4491979 L54.4183007,73.4117647 C48.7712418,73.4117647 43.3148315,73.4117647 36.7058824,73.4117647 C32.2999163,73.4117647 26.3957768,73.4117647 18.9934641,73.4117647 Z M44.1781967,41.9618797 L28.4778102,47.0632445 L26.5697562,59.9426091 L45.9109938,53.65826 L44.1781967,41.9618797 Z"/><rect id="Rectangle" width="15.941" height="19.706" x="27.794" y="15.559" fill="#FFF176" stroke="#979797"/><path id="Path" fill="#F4481E" fill-rule="nonzero" stroke="#000" d="M50.0534759,30.4491979 L53.3903743,30.4491979 L53.3903743,37.1229947 L20.0213904,37.1229947 L20.0213904,30.4491979 L23.3582888,30.4491979 L23.3582888,17.1016043 L36.7058824,8.75935829 L50.0534759,17.1016043 L50.0534759,30.4491979 Z M43.3796791,30.4491979 L43.3796791,20.8005404 L36.7058824,16.6294174 L30.0320856,20.8005404 L30.0320856,30.4491979 L43.3796791,30.4491979 Z"/><path id="Path" fill="url(#linearGradient-1)" fill-rule="nonzero" d="M50.0215842,37.1229947 L54.6860679,68.6082597 C49.3294518,71.6651185 43.1284537,73.4117647 36.5195046,73.4117647 C29.9105555,73.4117647 23.7095574,71.6651185 18.3529412,68.608257 L23.017425,37.1229947 L20.0213904,37.1229947 L20.0213904,30.4491979 L23.3582888,30.4491979 L23.3582888,17.1016043 L36.7058824,8.75935829 L50.0534759,17.1016043 L50.0534759,30.4491979 L53.3903743,30.4491979 L53.3903743,37.1229947 L50.0215842,37.1229947 Z"/><polygon id="Path-Copy-2" fill="url(#linearGradient-2)" fill-rule="nonzero" points="36.706 30.449 23.358 30.449 23.358 17.102 36.706 8.759"/><path id="Path-Copy-4" fill="url(#linearGradient-3)" fill-rule="nonzero" d="M36.7058824,73.4117647 C30.1105092,73.4117647 23.8883917,71.6534655 18.5393189,68.608257 L22.7217774,37.1229947 L36.7058824,37.1229947 L36.7058824,73.4117647 Z"/><rect id="Rectangle-Copy-13" width="16.684" height="6.674" x="20.021" y="30.449" fill="url(#linearGradient-4)" fill-rule="nonzero" transform="translate(28.363636, 33.786096) scale(-1, 1) translate(-28.363636, -33.786096)"/></g></g></g><use id="stars" fill="#FFA600" stroke="#212324" stroke-dasharray="1 1" stroke-width="2" mask="url(#mask-6)" xlink:href="#path-5"/><path id="cloud2" fill="#FFF" stroke="#212324" d="M13,72 C9.6862915,72 7,69.0898509 7,65.5 C7,61.9101491 9.6862915,59 13,59 C13.2472272,59 13.4909621,59.0161987 13.7303495,59.0476697 C15.0538097,56.0736095 18.0347461,54 21.5,54 C26.1664621,54 29.9546392,57.7603853 29.9995957,62.4162204 C30.6121646,62.1485128 31.2887388,62 32,62 C34.7614237,62 37,64.2385763 37,67 C37,69.7614237 34.7614237,72 32,72 L13,72 Z" transform="translate(22.000000, 63.000000) scale(-1, 1) translate(-22.000000, -63.000000)"/><path id="cloud1" fill="#FFF" stroke="#212324" d="M75.5635831,22.8461538 L77.0769231,22.8461538 C78.6912939,22.8461538 80,24.15486 80,25.7692308 C80,27.3836016 78.6912939,28.6923077 77.0769231,28.6923077 L65.3846154,28.6923077 L65.3846154,28.6045995 C65.1484966,28.662115 64.9041097,28.6923077 64.6538462,28.6923077 C62.6358826,28.6923077 61,26.7292485 61,24.3076923 C61,21.8861361 62.6358826,19.9230769 64.6538462,19.9230769 C65.0474257,19.9230769 65.426471,19.9977513 65.7816798,20.1359375 C66.5554537,18.293729 68.3766436,17 70.5,17 C73.3251489,17 75.6153846,19.2902357 75.6153846,22.1153846 C75.6153846,22.3634964 75.5977205,22.6074824 75.5635812,22.8461538 Z" transform="translate(70.500000, 22.846154) scale(-1, 1) translate(-70.500000, -22.846154)"/></g><g id="content" transform="translate(50.000000, 50.000000)"><g id="Clipped"><mask id="mask-8" fill="#fff"><use xlink:href="#path-7"/></mask><use id="c" fill="#FFF" stroke="#000" xlink:href="#path-7"/><g id="Group" stroke="#212121" stroke-width=".81" mask="url(#mask-8)"><g id="Shape"><path d="M0.30969697,44.8479394 L206.563636,44.8479394 M89.74,0.40430303 L89.74,140.248182 M170.00497,0.40430303 L170.00497,140.248182 M98.658,0.40430303 L98.658,140.248182 M178.92297,0.40430303 L178.92297,140.248182 M107.576424,0.40430303 L107.576424,140.248182 M187.841818,0.40430303 L187.841818,140.248182 M116.494848,0.40430303 L116.494848,140.248182 M196.759818,0.40430303 L196.759818,140.248182 M125.412848,0.40430303 L125.412848,140.248182 M205.678242,0.40430303 L205.678242,140.248182 M134.331273,0.40430303 L134.331273,140.248182 M80.8211515,0.40430303 L80.8211515,140.248182 M161.086545,0.40430303 L161.086545,140.248182 M71.9031515,0.40430303 L71.9031515,140.248182 M152.168121,0.40430303 L152.168121,140.248182 M62.9847273,0.40430303 L62.9847273,140.248182 M143.249697,0.40430303 L143.249697,140.248182 M54.066303,0.0848484848 L54.066303,139.929152 M45.1478788,0.0848484848 L45.1478788,139.929152 M36.2294545,0.0848484848 L36.2294545,139.929152 M27.3110303,0.0848484848 L27.3110303,139.929152 M18.3930303,0.0848484848 L18.3930303,139.929152 M9.47460606,0.0848484848 L9.47460606,139.929152 M0.556181818,0.0848484848 L0.556181818,139.929152 M0.30969697,35.9464848 L206.563636,35.9464848 M0.30969697,27.0454545 L206.563636,27.0454545 M0.30969697,18.144 L206.563636,18.144 M0.30969697,9.2429697 L206.563636,9.2429697 M0.30969697,0.341515152 L206.563636,0.341515152 M0.30969697,53.7489697 L206.563636,53.7489697 M0.30969697,62.65 L206.563636,62.65 M0.30969697,71.5514545 L206.563636,71.5514545 M0.30969697,80.4524848 L206.563636,80.4524848 M0.30969697,89.3539394 L206.563636,89.3539394 M0.30969697,98.2549697 L206.563636,98.2549697 M0.30969697,107.156424 L206.563636,107.156424 M0.30969697,116.057455 L206.563636,116.057455 M0.30969697,124.958909 L206.563636,124.958909 M0.30969697,133.859939 L206.563636,133.859939" transform="translate(-72.969697, -38.606061)"/></g></g></g><g id="performance" stroke="#212121" transform="translate(6.000000, 10.000000)"><path id="Rectangle-10" fill="#FFF176" fill-rule="nonzero" d="M15.1948937,0.00376539964 L15.1948937,0.00376539964 C23.4998756,0.00376539964 30.2323937,6.73628347 30.2323937,15.0412654 L30.2323937,17.7403039 L0.157393705,17.7403039 L0.157393705,15.0412654 C0.157393705,6.73628347 6.88991178,0.00376539964 15.1948937,0.00376539964 Z"/><path id="Path" fill="#FFF" fill-rule="nonzero" d="M18.3684947,18.0500449 L18.3643402,18.0719349 L18.3691619,18.0468591 C18.3689402,18.0479213 18.3687177,18.0489832 18.3684947,18.0500449 Z M18.3684947,18.0500449 C18.1216001,19.2250619 17.0778481,20.0795133 15.8644345,20.0795133 C14.4469844,20.0795133 13.2977422,18.9302711 13.2977422,17.512821 C13.2977422,17.082653 13.413142,16.6723427 13.6082021,16.3226021 L18.9380865,4.33571161 L19.0425632,4.12254478 C19.2274366,3.83496397 19.5398598,3.65643639 19.8847165,3.65643639 C20.4487563,3.65643639 20.8988191,4.10649915 20.8900816,4.76360421 L18.3684947,18.0500449 Z" transform="translate(17.098281, 11.867975) rotate(9.000000) translate(-17.098281, -11.867975)"/><path id="Path-22" stroke-dasharray="2.304" d="M5.17008197,15.5948733 C5.2604726,10.5792952 9.9282922,4.31053537 17.4422725,6.25960036"/></g></g></g></svg>